<?xml version="1.0" encoding="utf-8"?>
<!-- Generator: Adobe Illustrator 25.2.2, SVG Export Plug-In . SVG Version: 6.00 Build 0)  -->
<svg version="1.1" id="Layer_1" xmlns="http://www.w3.org/2000/svg" xmlns:xlink="http://www.w3.org/1999/xlink" x="0px" y="0px"
	 viewBox="0 0 1707 1681" style="enable-background:new 0 0 1707 1681;" xml:space="preserve">
<style type="text/css">
	.st0{fill:#FFFFFF;}
</style>
<g id="imac">
	<path class="st0" d="M1552.2,0H156.9C71.3,0,0,67.6,0,153.7v1023.6c0,41.8,17,81.8,46.3,110.9c29.1,28.9,68.9,45.8,110.6,45.8
		h426.8c-10.5,149-69.6,237.5-72.4,241.7c-14.5,20.1-16.4,46.8-5.2,68.9c11.3,22.2,34.3,36.3,59.1,36.3h578.6
		c24.9,0,47.9-14.7,59.2-36.9c11.2-22.1,9.3-47.9-5.2-68c-2.9-4.3-62.1-93.2-72.6-242.2h427.1c86.7,0,154.8-71.3,154.8-156.7V153.7
		C1707,67.6,1639,0,1552.2,0z M156.9,132h1395.3c13.4,0,22.8,8.9,22.8,21.7V862H132V153.7C132,140.2,143.9,132,156.9,132z
		 M1037.7,1549H671.3c20.2-53,39.7-125,44.8-215h276.7C997.9,1424,1017.5,1496,1037.7,1549z M1552.2,1202H156.9
		c-13.4,0-24.9-11.6-24.9-24.7V994h1443v183.3C1575,1189.8,1566.1,1202,1552.2,1202z"/>
</g>
<g id="Layer_1_1_">
</g>
</svg>
