<?xml version="1.0" encoding="utf-8"?>
<!-- Generator: Adobe Illustrator 25.2.2, SVG Export Plug-In . SVG Version: 6.00 Build 0)  -->
<svg version="1.1" id="Glyph" xmlns="http://www.w3.org/2000/svg" xmlns:xlink="http://www.w3.org/1999/xlink" x="0px" y="0px"
	 viewBox="0 0 32 32" style="enable-background:new 0 0 32 32;" xml:space="preserve">
<style type="text/css">
	.st0{fill:#FFFFFF;}
</style>
<path id="XMLID_352_" class="st0" d="M29,16c0,1.1-0.9,2-2,2H11c-1.1,0-2-0.9-2-2s0.9-2,2-2h16C28.1,14,29,14.9,29,16z"/>
<path id="XMLID_354_" class="st0" d="M29,6c0,1.1-0.9,2-2,2H11C9.9,8,9,7.1,9,6s0.9-2,2-2h16C28.1,4,29,4.9,29,6z"/>
<path id="XMLID_356_" class="st0" d="M29,26c0,1.1-0.9,2-2,2H11c-1.1,0-2-0.9-2-2s0.9-2,2-2h16C28.1,24,29,24.9,29,26z"/>
<path id="XMLID_358_" class="st0" d="M3,6c0,1.1,0.9,2,2,2s2-0.9,2-2S6.1,4,5,4S3,4.9,3,6z"/>
<path id="XMLID_360_" class="st0" d="M3,16c0,1.1,0.9,2,2,2s2-0.9,2-2s-0.9-2-2-2S3,14.9,3,16z"/>
<path id="XMLID_362_" class="st0" d="M3,26c0,1.1,0.9,2,2,2s2-0.9,2-2s-0.9-2-2-2S3,24.9,3,26z"/>
</svg>
