<?xml version="1.0" encoding="utf-8"?>
<!-- Generator: Adobe Illustrator 25.2.2, SVG Export Plug-In . SVG Version: 6.00 Build 0)  -->
<svg version="1.1" id="Layer_1" xmlns="http://www.w3.org/2000/svg" xmlns:xlink="http://www.w3.org/1999/xlink" x="0px" y="0px"
	 viewBox="0 0 800 10" style="enable-background:new 0 0 800 10;" xml:space="preserve">
<style type="text/css">
	.st0{fill:#777777;}
	.st1{fill:#B3B3B3;}
	.st2{fill:#DBDBDB;}
</style>
<g>
	<path class="st0" d="M792.7,1h-0.3c2.2,0,4,1.8,4,4s-1.8,4-4,4H215l0,0h577.7c2.2,0,4-1.8,4-4S794.9,1,792.7,1z"/>
</g>
<g>
	<path class="st1" d="M3.3,5c0-2.2,1.8-4,4-4H215l0,0H7C4.8,1,3,2.8,3,5s1.8,4,4,4h0.3C5.1,9,3.3,7.2,3.3,5z"/>
</g>
<g>
	<path class="st0" d="M215,9h577.4c2.2,0,4-1.8,4-4s-1.8-4-4-4H215V9z"/>
</g>
<g>
	<path class="st2" d="M215,1H7.3c-2.2,0-4,1.8-4,4s1.8,4,4,4H215V1z"/>
</g>
</svg>
