<?xml version="1.0" encoding="utf-8"?>
<!-- Generator: Adobe Illustrator 25.2.2, SVG Export Plug-In . SVG Version: 6.00 Build 0)  -->
<svg version="1.1" id="Livello_1" xmlns="http://www.w3.org/2000/svg" xmlns:xlink="http://www.w3.org/1999/xlink" x="0px" y="0px"
	 viewBox="0 0 141.7 121" style="enable-background:new 0 0 141.7 121;" xml:space="preserve">
<style type="text/css">
	.st0{fill:#FFFFFF;}
</style>
<g id="Livello_30">
	<path class="st0" d="M137.3,49.2c-1.8-1.8-4.8-1.8-6.6,0l-14.5,14.5c0.1-1.1,0.1-2.3,0.1-3.4C116.6,28.4,91,2.8,59.1,3
		C27.3,3.2,1.2,29.3,1,61.1C0.8,93,26.4,118.6,58.3,118.4c12.9-0.1,24.9-4.4,34.6-11.7l-8.2-8.2c-7.5,5.2-16.6,8.3-26.3,8.4
		C32.9,107,12.4,86.5,12.5,61c0.2-25.5,21-46.3,46.5-46.5c25.5-0.2,46,20.3,45.8,45.8c0,1-0.1,2.1-0.1,3.1l-14-14l0,0
		c-1.8-1.8-4.8-1.8-6.7,0.1c-1.9,1.8-1.9,4.8,0,6.7l23.1,23.1c1.5,1.5,3.7,1.7,5.5,0.8l0.1,0.1c0,0,0-0.1,0.1-0.1
		c0.4-0.2,0.7-0.5,1.1-0.8l23.5-23.5C139.1,53.9,139.1,51,137.3,49.2"/>
</g>
<g id="Livello_1_1_">
</g>
</svg>
