<?xml version="1.0" encoding="utf-8"?>
<!-- Generator: Adobe Illustrator 25.2.2, SVG Export Plug-In . SVG Version: 6.00 Build 0)  -->
<svg version="1.1" id="Layer_1" xmlns="http://www.w3.org/2000/svg" xmlns:xlink="http://www.w3.org/1999/xlink" x="0px" y="0px"
	 viewBox="0 0 317 10" style="enable-background:new 0 0 317 10;" xml:space="preserve">
<style type="text/css">
	.st0{fill:#777777;}
	.st1{fill:#B3B3B3;}
	.st2{fill:#DBDBDB;}
</style>
<g>
	<path class="st0" d="M308.9,1h-0.3c2.2,0,4,1.8,4,4s-1.8,4-4,4H90.3l0,0h218.6c2.2,0,4-1.8,4-4S311.1,1,308.9,1z"/>
</g>
<g>
	<path class="st1" d="M4.9,5c0-2.2,1.8-4,4-4h81.4l0,0H8.6c-2.2,0-4,1.8-4,4s1.8,4,4,4h0.3C6.7,9,4.9,7.2,4.9,5z"/>
</g>
<g>
	<path class="st0" d="M90.3,9h218.3c2.2,0,4-1.8,4-4s-1.8-4-4-4H90.3V9z"/>
</g>
<g>
	<path class="st2" d="M90.3,1H8.9c-2.2,0-4,1.8-4,4s1.8,4,4,4h81.4V1z"/>
</g>
</svg>
